{
  "asset": {
    "generator": "Khronos glTF Blender I/O v3.2.40",
    "version": "2.0"
  },
  "scene": 0,
  "scenes": [
    {
      "name": "Scene",
      "nodes": [
        0
      ]
    }
  ],
  "nodes": [
    {
      "mesh": 0,
      "name": "desk_lamp_arm_01"
    }
  ],
  "materials": [
    {
      "doubleSided": true,
      "name": "desk_lamp_arm_01",
      "normalTexture": {
        "index": 0
      },
      "pbrMetallicRoughness": {
        "baseColorTexture": {
          "index": 1
        },
        "metallicRoughnessTexture": {
          "index": 2
        }
      }
    },
    {
      "doubleSided": true,
      "emissiveFactor": [
        1,
        0.9837890267372131,
        0.649111270904541
      ],
      "name": "desk_lamp_arm_01_light",
      "normalTexture": {
        "index": 3
      },
      "pbrMetallicRoughness": {
        "baseColorTexture": {
          "index": 4
        },
        "metallicRoughnessTexture": {
          "index": 5
        }
      }
    }
  ],
  "meshes": [
    {
      "name": "Box.001",
      "primitives": [
        {
          "attributes": {
            "POSITION": 0,
            "NORMAL": 1,
            "TEXCOORD_0": 2
          },
          "indices": 3,
          "material": 0
        },
        {
          "attributes": {
            "POSITION": 4,
            "NORMAL": 5,
            "TEXCOORD_0": 6
          },
          "indices": 7,
          "material": 1
        }
      ]
    }
  ],
  "textures": [
    {
      "sampler": 0,
      "source": 0
    },
    {
      "sampler": 0,
      "source": 1
    },
    {
      "sampler": 0,
      "source": 2
    },
    {
      "sampler": 0,
      "source": 0
    },
    {
      "sampler": 0,
      "source": 1
    },
    {
      "sampler": 0,
      "source": 2
    }
  ],
  "images": [
    {
      "mimeType": "image/jpeg",
      "name": "desk_lamp_arm_01_nor_gl",
      "uri": "textures/desk_lamp_arm_01_nor_gl_1k.jpg"
    },
    {
      "mimeType": "image/jpeg",
      "name": "desk_lamp_arm_01_diff",
      "uri": "textures/desk_lamp_arm_01_diff_1k.jpg"
    },
    {
      "mimeType": "image/jpeg",
      "name": "desk_lamp_arm_01_metal-desk_lamp_arm_01_rough",
      "uri": "textures/desk_lamp_arm_01_arm_1k.jpg"
    }
  ],
  "accessors": [
    {
      "bufferView": 0,
      "componentType": 5126,
      "count": 17533,
      "max": [
        0.08325615525245667,
        0.8046169281005859,
        0.3172350823879242
      ],
      "min": [
        -0.11847317218780518,
        -0.08799377083778381,
        -0.29663750529289246
      ],
      "type": "VEC3"
    },
    {
      "bufferView": 1,
      "componentType": 5126,
      "count": 17533,
      "type": "VEC3"
    },
    {
      "bufferView": 2,
      "componentType": 5126,
      "count": 17533,
      "type": "VEC2"
    },
    {
      "bufferView": 3,
      "componentType": 5123,
      "count": 67794,
      "type": "SCALAR"
    },
    {
      "bufferView": 4,
      "componentType": 5126,
      "count": 973,
      "max": [
        0.027660036459565163,
        0.7424256801605225,
        -0.1412101536989212
      ],
      "min": [
        -0.03705751523375511,
        0.6487915515899658,
        -0.21220247447490692
      ],
      "type": "VEC3"
    },
    {
      "bufferView": 5,
      "componentType": 5126,
      "count": 973,
      "type": "VEC3"
    },
    {
      "bufferView": 6,
      "componentType": 5126,
      "count": 973,
      "type": "VEC2"
    },
    {
      "bufferView": 7,
      "componentType": 5123,
      "count": 4512,
      "type": "SCALAR"
    }
  ],
  "bufferViews": [
    {
      "buffer": 0,
      "byteLength": 210396,
      "byteOffset": 0
    },
    {
      "buffer": 0,
      "byteLength": 210396,
      "byteOffset": 210396
    },
    {
      "buffer": 0,
      "byteLength": 140264,
      "byteOffset": 420792
    },
    {
      "buffer": 0,
      "byteLength": 135588,
      "byteOffset": 561056
    },
    {
      "buffer": 0,
      "byteLength": 11676,
      "byteOffset": 696644
    },
    {
      "buffer": 0,
      "byteLength": 11676,
      "byteOffset": 708320
    },
    {
      "buffer": 0,
      "byteLength": 7784,
      "byteOffset": 719996
    },
    {
      "buffer": 0,
      "byteLength": 9024,
      "byteOffset": 727780
    }
  ],
  "samplers": [
    {
      "magFilter": 9729,
      "minFilter": 9987
    }
  ],
  "buffers": [
    {
      "byteLength": 736804,
      "uri": "desk_lamp_arm_01.bin"
    }
  ]
}